<svg xmlns="http://www.w3.org/2000/svg" viewBox="0 0 384.58 195.82">
    <defs>
        <style>
            .TWD_SVG {
                fill: #fff;
            }
        </style>
    </defs>
    <g id="Layer_2" data-name="Layer 2">
        <g id="Layer_1-2" data-name="Layer 1">
            <path class="TWD_SVG"
                d="M384.08,29.38h.5c0-4.35-.82-7.38-2.67-9S377,18,372.55,18H344.26V9.05h29.22v5.4L384,12v-.39c0-4.41-.79-7.47-2.57-9.17S376.47,0,372,0h-26.2c-4.4,0-7.5.73-9.32,2.37s-2.62,4.69-2.62,9v5.1c0,4.34.8,7.37,2.62,9s4.92,2.36,9.32,2.36H374.1v9.56H342.47V31.9L332,34.07v.41c0,4.82.72,8.13,2.36,10s4.92,2.66,9.68,2.67h28.52c4.4,0,7.52-.74,9.36-2.36s2.67-4.7,2.67-9.05V29.38h-1v6.35c0,4.24-.84,7-2.34,8.3s-4.39,2.11-8.69,2.11H344c-4.66,0-7.64-.86-8.93-2.34S333,39.2,333,34.48h-.5l.1.49,8.88-1.85v5.34H375.1V26.91H345.81c-4.3,0-7.18-.75-8.65-2.1s-2.3-4.07-2.29-8.3v-5.1c0-4.24.83-7,2.29-8.31S341.51,1,345.81,1H372c4.36,0,7.26.77,8.69,2.14S383,7.29,383,11.59h.5l-.12-.49-8.86,2.09V8.05H343.26V19h29.29c4.3,0,7.2.76,8.7,2.11s2.34,4.06,2.33,8.3ZM311.3,19.81v-.5H282.81v8.87h17.53v9.29H267.81V9.23h32.53v5.28l11.46-2.06V12c0-4.58-.74-7.74-2.42-9.51S304.49,0,299.85,0H268c-4.4,0-7.5.73-9.32,2.37s-2.62,4.69-2.62,9V35.73c0,4.35.8,7.37,2.62,9s4.92,2.36,9.32,2.37h31.83c4.41,0,7.51-.73,9.33-2.37s2.61-4.69,2.62-9V19.31h-.5v.5h-.5V35.73c0,4.24-.83,7-2.3,8.3s-4.35,2.12-8.65,2.11H268c-4.3,0-7.18-.76-8.65-2.11s-2.3-4.06-2.29-8.3V11.41c0-4.24.83-7,2.29-8.31S263.72,1,268,1h31.83c4.54,0,7.48.81,8.81,2.22s2.15,4.34,2.14,8.81h.5l-.09-.49-9.87,1.77V8.23H266.81V38.46h34.53V27.18H283.81V20.31H311.3v-.5h0ZM234.05.5V0H223.89V24.73c0,1.05.15,3.7.45,8l.5,0,.38-.33a52.74,52.74,0,0,0-5.33-5.06L187.29,0h-8V47.14h10.66V21.42q0-2.62-.45-7.11l-.5,0-.38.33a34.5,34.5,0,0,0,3.91,3.81l34,28.64h8V0h-.5V.5h-.5V46.14H226.9L193.15,17.73a31.7,31.7,0,0,1-3.79-3.7l-1-1.19.16,1.57q.44,4.45.44,7V46.14h-8.66V1h6.65l32.32,27.06a50.66,50.66,0,0,1,5.22,5l1,1.13-.1-1.5c-.3-4.28-.45-6.94-.45-7.92V1h9.16V.5h0ZM156.26.5V0H145V47.14h11.73V0h-.5V.5h-.5V46.14H146V1h10.23V.5h0ZM121.92.5V0H110.61V17.88H78.07V0H66.35V47.14H78.07V27.29h32.54V47.14h11.81V0h-.5V.5h-.5V46.14H111.6V26.29H77.08V46.14H67.34V1h9.74V18.88H111.6V1h10.32V.5h0ZM53.7.5V0H0V9.23H21.19V47.14H32.92V9.23H54.2V0h-.5V.5h-.5V8.23H31.92V46.14H22.19V8.23H1V1H53.7V.5h0Z" />
            <path class="TWD_SVG"
                d="M264,112.31v-.5H227.53V101.36h21.28V92.5H227.53V83.21H264V74.34H215.8v47.14h48.66v-9.67H264v.5h-.5v8.17H216.8V75.34H263v6.87H226.53V93.49h21.28v6.87H226.53v12.45H264v-.5h0ZM191.44,74.84l-.47-.17-10.73,29.71-12.16-30H159.9L148,104.4,136.62,74.34H124.46l18.18,47.14h8.1l12.53-31.07,12.36,31.07h7.93l18.18-47.14H191.09l-.12.33.47.17v.5h8.84l-17.41,45.14h-6.56l-13-32.76-13.22,32.76h-6.74l-17.4-45.14h10l12,31.83,12.6-31.83h6.83l12.88,31.84L191.91,75l-.47-.17v0Z" />
            <path class="TWD_SVG"
                d="M217,186.65h.5V157.91h34.41v28.24H217v.5h0v.5h35.91V156.91H216.51v30.24h.5Zm46.14-26.55h.5c0-4.35-.81-7.38-2.62-9s-4.92-2.35-9.32-2.36h-34c-4.41,0-7.51.73-9.32,2.36s-2.62,4.7-2.63,9v24.32c0,4.34.81,7.37,2.63,9s4.91,2.36,9.32,2.36h34c4.4,0,7.5-.73,9.32-2.36s2.61-4.7,2.62-9V160.1h-1v24.32c0,4.23-.83,7-2.29,8.3s-4.36,2.11-8.65,2.11h-34c-4.3,0-7.19-.76-8.65-2.11s-2.3-4.06-2.3-8.3V160.1c0-4.24.84-7,2.3-8.31s4.35-2.11,8.65-2.1h34c4.29,0,7.18.76,8.65,2.1s2.3,4.07,2.29,8.31Zm-92.72,24.05-.24-.44c-2.85,1.6-7.55,2.45-14.07,2.44H142.76V157.91h18.55c10,.08,14.63,4.5,14.7,13.9,0,5.86-1.95,9.73-5.82,11.9l.24.44.24.43c4.24-2.35,6.35-6.71,6.34-12.77,0-4.88-1.29-8.64-4-11.16s-6.6-3.74-11.74-3.74H141.76v30.24h14.36c6.6,0,11.43-.82,14.55-2.57Zm9.57-29.6.31-.39c-4.65-3.67-11-5.47-19.09-5.47H131v47.13h27.41c8.81,0,15.19-1.18,19.22-3.64,6.94-4.32,10.44-11.13,10.43-20.19,0-7.79-2.6-13.8-7.8-17.83l-.3.39-.31.4c4.93,3.83,7.4,9.45,7.41,17,0,8.82-3.31,15.18-10,19.33-3.73,2.31-10,3.51-18.69,3.51H132V149.69h29.19c7.92,0,14.05,1.77,18.47,5.26Z" />
        </g>
    </g>
</svg>