<svg xmlns="http://www.w3.org/2000/svg" viewBox="0 0 832.99 91.54"><defs><style>.cls-1{fill:#1d1a55;}</style></defs><g id="Layer_2" data-name="Layer 2"><g id="Layer_1-2" data-name="Layer 1"><path class="cls-1" d="M824,84.87h1.58l.34-1.54h-1.58ZM821.64,79h-1l-.21,1h1l-.68,3.23a4.07,4.07,0,0,0-.08.66c0,.54.24,1.09,1.18,1.09a4.88,4.88,0,0,0,1.07-.12l.22-1a3.59,3.59,0,0,1-.7.05c-.39,0-.47-.18-.47-.43a3.59,3.59,0,0,1,.12-.64l.6-2.88h1.18l.2-1h-1.17l.36-1.77H822Zm-2.89-1H820l.25-1.24H819Zm-1.44,6.9h1.3L819.83,79h-1.3Zm-7.38,0h1.3l.55-2.61c.25-1.18.82-2.21,2.16-2.21a2.4,2.4,0,0,1,.46,0l.27-1.25a4.43,4.43,0,0,0-.63,0,2.44,2.44,0,0,0-1.88,1.33l0,0,.24-1.15h-1.23Zm-3.2-5c.95,0,1.36.65,1.36,1.51,0,1.2-.65,2.65-2,2.65-.94,0-1.35-.65-1.35-1.52,0-1.17.65-2.64,2-2.64M806,85a3.37,3.37,0,0,0,3.37-3.68,2.32,2.32,0,0,0-2.58-2.53,3.44,3.44,0,0,0-3.36,3.64A2.35,2.35,0,0,0,806,85M800,84.87h1.3l1-4.92h1.15l.19-1h-1.14c.18-.71.16-1.22,1-1.22a2,2,0,0,1,.5,0l.21-1a9.05,9.05,0,0,0-1-.08c-1.59,0-1.8.89-2.08,2.25h-1L800,80h1Zm-3.29-8.14h-1.3l-.65,3.06h0a1.75,1.75,0,0,0-1.78-1c-2,0-3.2,1.89-3.2,3.8A2.13,2.13,0,0,0,792,85a2,2,0,0,0,1.84-1l0,0-.18.79h1.24Zm-2.29,4.53c0,1.19-.68,2.75-2,2.75A1.23,1.23,0,0,1,791,82.62c0-1.33.61-2.77,2.06-2.77a1.24,1.24,0,0,1,1.3,1.41m-9.13,3.61h1.3l.55-2.61c.25-1.18.82-2.21,2.16-2.21a2.4,2.4,0,0,1,.46,0l.27-1.25a4.29,4.29,0,0,0-.62,0,2.41,2.41,0,0,0-1.88,1.33l0,0,.24-1.15h-1.23Zm-3.2-5c1,0,1.36.65,1.36,1.51,0,1.2-.65,2.65-2,2.65-.95,0-1.36-.65-1.36-1.52,0-1.17.65-2.64,2-2.64m-.7,5.18a3.37,3.37,0,0,0,3.36-3.68,2.32,2.32,0,0,0-2.58-2.53,3.44,3.44,0,0,0-3.36,3.64A2.35,2.35,0,0,0,781.34,85m-10.55-.16h1.35l2-4.29h0l.26,4.29h1.36L778.81,79h-1.37l-2,4.25h0L775.12,79h-1.36l-2,4.25h0L771.42,79h-1.33Zm-8.55,0h1.3l.55-2.61c.25-1.18.82-2.21,2.16-2.21a2.4,2.4,0,0,1,.46,0l.27-1.25a4.36,4.36,0,0,0-.63,0,2.44,2.44,0,0,0-1.88,1.33l0,0,.24-1.15h-1.23ZM762.06,79h-1.3l-.66,3.19A2.13,2.13,0,0,1,758.23,84c-1,0-.9-.65-.9-.85a2.89,2.89,0,0,1,.09-.54l.75-3.64h-1.29l-.79,3.76a3.6,3.6,0,0,0-.06.73c0,1,.54,1.56,1.72,1.56a2.49,2.49,0,0,0,2-1l0,0-.18.85h1.22Zm-9.56.87c1,0,1.36.65,1.36,1.51,0,1.2-.65,2.65-2,2.65-1,0-1.36-.65-1.36-1.52,0-1.17.65-2.64,2-2.64M751.8,85a3.37,3.37,0,0,0,3.36-3.68,2.32,2.32,0,0,0-2.58-2.53,3.44,3.44,0,0,0-3.36,3.64A2.35,2.35,0,0,0,751.8,85m-10.66-3.62a1.85,1.85,0,0,1,1.79-1.56A1.14,1.14,0,0,1,744.17,81c0,.12,0,.23,0,.37Zm2.67,1.64a1.36,1.36,0,0,1-1.41,1A1.25,1.25,0,0,1,741,82.64a1.76,1.76,0,0,1,0-.38h4.39a4.66,4.66,0,0,0,.06-.73c0-1.15-.41-2.71-2.5-2.71a3.39,3.39,0,0,0-3.27,3.64A2.43,2.43,0,0,0,742.27,85a2.68,2.68,0,0,0,2.84-2Zm-10.28,1.82h1.3l.42-2,1-.86,1,2.86h1.44l-1.44-3.72,2.6-2.17h-1.64l-2.67,2.38,0,0,1-4.61h-1.3Zm-5-1.61c0-1,1.33-1,2.06-1a1.48,1.48,0,0,0,.81-.27l0,0c-.18,1.12-.6,2-1.86,2-.48,0-1-.19-1-.75m4.34-2.18a4.21,4.21,0,0,0,.12-.89c0-.42-.07-1.37-2.21-1.37-1.41,0-2.5.49-2.79,2h1.24c.18-.73.76-.92,1.47-.92.53,0,1,.14,1,.7a.7.7,0,0,1-.69.78c-.42,0-.86.08-1.3.1-1.29.08-2.47.58-2.47,2A1.64,1.64,0,0,0,729.07,85a2.83,2.83,0,0,0,2-.75.75.75,0,0,0,.79.75,4.34,4.34,0,0,0,1-.16l.21-.93c-.15,0-.31.07-.46.07s-.27-.11-.27-.27a3.19,3.19,0,0,1,.11-.58ZM725,79h-1l-.2,1h1l-.67,3.23a4.07,4.07,0,0,0-.08.66c0,.54.24,1.09,1.17,1.09a4.9,4.9,0,0,0,1.08-.12l.21-1a3.5,3.5,0,0,1-.69.05c-.39,0-.47-.18-.47-.43a4.51,4.51,0,0,1,.11-.64l.61-2.88h1.17l.21-1h-1.18l.37-1.77h-1.27Zm-7,0h-1l-.2,1h1l-.67,3.23a4.07,4.07,0,0,0-.08.66c0,.54.24,1.09,1.17,1.09a5,5,0,0,0,1.08-.12l.21-1a3.5,3.5,0,0,1-.69.05c-.39,0-.47-.18-.47-.43a4.51,4.51,0,0,1,.11-.64l.61-2.88h1.17l.21-1h-1.18l.37-1.77h-1.27Zm-3.41-.71h.86c-.13.56-.32.94-.93,1l-.13.66a1.82,1.82,0,0,0,1.79-1.69l.31-1.53h-1.58Zm-7.88,6.6H708l.66-3.19a2.68,2.68,0,0,1,.63-1.26,1.73,1.73,0,0,1,1.24-.57c.94,0,.9.65.9.84a3.13,3.13,0,0,1-.09.55l-.76,3.63h1.3l.79-3.76a4.32,4.32,0,0,0,.06-.73c0-.94-.54-1.56-1.73-1.56a2.47,2.47,0,0,0-2,1l0,0,.19-.86H708Zm-3.2-5c.94,0,1.35.65,1.35,1.51,0,1.2-.65,2.65-2,2.65-.95,0-1.36-.65-1.36-1.52,0-1.17.65-2.64,2-2.64M702.83,85a3.37,3.37,0,0,0,3.36-3.68,2.31,2.31,0,0,0-2.57-2.53,3.45,3.45,0,0,0-3.37,3.64A2.35,2.35,0,0,0,702.83,85m-2.61-8.3h-1.3l-.64,3.06h0a1.75,1.75,0,0,0-1.78-1c-2,0-3.2,1.89-3.2,3.8A2.13,2.13,0,0,0,695.56,85a2,2,0,0,0,1.85-1l0,0-.18.79h1.24Zm-2.29,4.53c0,1.19-.68,2.75-2,2.75a1.24,1.24,0,0,1-1.35-1.39c0-1.33.62-2.77,2.06-2.77a1.24,1.24,0,0,1,1.3,1.41M687.64,79h-1l-.21,1h1l-.67,3.23a3.19,3.19,0,0,0-.08.66c0,.54.24,1.09,1.17,1.09a4.88,4.88,0,0,0,1.07-.12l.22-1a3.54,3.54,0,0,1-.7.05c-.38,0-.47-.18-.47-.43a3.59,3.59,0,0,1,.12-.64l.6-2.88h1.18l.2-1h-1.17l.36-1.77H688Zm-1.76,0h-1.3l-.66,3.19A2.13,2.13,0,0,1,682.05,84c-1,0-.9-.65-.9-.85a2.89,2.89,0,0,1,.09-.54L682,79h-1.3l-.78,3.76a3.6,3.6,0,0,0-.06.73c0,1,.54,1.56,1.72,1.56a2.49,2.49,0,0,0,2-1l0,0-.18.85h1.22Zm-12,2.19H676c1.46,0,1.51.89,1.46,1.28-.13,1.33-1.63,1.26-2.11,1.26h-2Zm.67-3.27h2c1.16,0,1.25.64,1.25,1s-.2,1.27-1.62,1.27h-2.13Zm-2.87,7h4.18c2.52,0,3.06-1.72,3.06-2.56a1.62,1.62,0,0,0-1.22-1.71v0a1.9,1.9,0,0,0,1.56-1.94c0-.59-.23-1.91-2.39-1.91h-3.51Z"/><polygon class="cls-1" points="665.61 75.59 665.36 75.59 665.36 91.54 832.99 91.54 832.99 70.56 670.47 70.56 661.01 66.16 665.39 75.69 665.61 75.59 665.36 75.59 665.61 75.59 665.84 75.49 662.03 67.19 670.36 71.06 832.49 71.06 832.49 91.04 665.86 91.04 665.86 75.54 665.84 75.49 665.61 75.59"/><path class="cls-1" d="M821.28,31.63q0-7-2.74-9.5t-9.89-2.44H777.11V8.81h33.1v5.78l10.38-2.44Q820.59,5,818,2.5T808.06,0h-28.7q-7.14,0-9.84,2.45T766.83,12v5.58q0,7,2.69,9.5t9.84,2.45H810.9V41H775.15v-6l-10.38,2.16q0,7.83,2.45,10.57t10.19,2.75h31.24q7.14,0,9.89-2.45t2.74-9.5ZM749.2,41H711.3V0H699.55V50.54H749.2ZM637,30.36,648.23,9.79,659.1,30.36ZM654.3,0H642.94l-28.6,50.54h11.75L632,39.47h32l6.07,11.07h13.22ZM598.19,0H586.43V50.54h11.76ZM560.68,0H550.1V26.54q0,1.66.49,8.72a55.58,55.58,0,0,0-5.78-5.49L509.26,0h-8V50.54h10.58V22.92c0-1.9-.17-4.47-.49-7.74a34.94,34.94,0,0,0,4.21,4.11l37.12,31.25h8ZM426,9H464.8V41H426ZM476.55,12q0-7-2.69-9.5T464,0H426.8Q419.65,0,417,2.45t-2.7,9.5V38.59q0,7,2.7,9.5t9.84,2.45H464q7.14,0,9.84-2.45t2.69-9.5ZM390.56,0h-9.4L357.85,30.56,334.06,0h-9.5V50.54h9.5V18.9c0-1.3-.1-3-.3-5a23.18,23.18,0,0,0,3,5.19l19,25.36h2.35l19-25.26q2.06-3.43,2.93-5.29-.39,3.53-.39,5.19V50.54h10.87ZM298.8,0H287.05V50.54H298.8ZM272.65,0H214.38V9h23.21V50.54h11.75V9h23.31Zm-71.2,31.63q0-7-2.74-9.5t-9.89-2.44H157.28V8.81h33.11v5.78l10.38-2.44q0-7.16-2.65-9.65T188.23,0H159.54q-7.15,0-9.85,2.45T147,12v5.58q0,7,2.69,9.5t9.85,2.45h31.53V41H155.32v-6l-10.38,2.16q0,7.83,2.45,10.57t10.19,2.75h31.24q7.14,0,9.89-2.45t2.74-9.5ZM124.87,41H84.42V28.5h23.31V19.88H84.42V8.62h40V0H72.67V50.54h52.2ZM58.27,0H0V9H23.21V50.54H35V9H58.27Z"/></g></g></svg>