
<svg xmlns="http://www.w3.org/2000/svg" viewBox="0 0 183.27 61.43"><defs><style>.cls-1{fill:#1d1a55;}</style></defs><g id="Layer_2" data-name="Layer 2"><g id="Layer_1-2" data-name="Layer 1"><rect class="cls-1" x="37.87" y="18.41" width="3.28" height="3.28"/><rect class="cls-1" x="42.02" y="18.41" width="3.28" height="3.28"/><rect class="cls-1" x="37.87" y="22.6" width="3.28" height="3.28"/><rect class="cls-1" x="42.02" y="22.6" width="3.28" height="3.28"/><path class="cls-1" d="M31.94,39.56v6.58h-4.1V29.06h9.3c3.94,0,6.19,1.94,6.19,4.88a4,4,0,0,1-3,4c.7.28,2.53,1,2.53,4v.86a13.72,13.72,0,0,0,.22,3.29H38.85a11,11,0,0,1-.32-3.57V42c0-1.73-.63-2.45-3.12-2.45Zm0-3.11h4.27c2,0,2.89-.72,2.89-2.16s-.9-2.12-2.85-2.12H31.94Z"/><polygon class="cls-1" points="60.5 38.93 50.97 38.93 50.97 42.82 61.57 42.82 61.09 46.14 46.83 46.14 46.83 29.06 61.02 29.06 61.02 32.38 50.97 32.38 50.97 35.62 60.5 35.62 60.5 38.93"/><path class="cls-1" d="M64.65,46.14V29.06h4.91c4.79,7.32,6.71,10,7.78,12h0c-.17-1.79-.15-5-.15-7.8V29.06H81V46.14h-4.6c-1.61-2.54-7.07-11-8.09-13h0c.14,2.11.14,4.53.14,7.57v5.41Z"/><path class="cls-1" d="M103.09,37.54c0,4.73-3.16,9-9.37,9-5.79,0-9.1-4-9.1-8.94,0-4.7,3.5-8.86,9.29-8.86,6,0,9.18,4.18,9.18,8.84m-14.1,0c0,3.23,1.64,5.76,5,5.76s4.77-2.9,4.77-5.68c0-3-1.48-5.66-4.93-5.66S89,34.63,89,37.51"/><path class="cls-1" d="M111.05,46.14l-7-17.08h4.58l3,8.13c1.13,3.08,1.62,4.73,1.91,5.82h0c.27-1,.5-1.71,2.11-6.13l2.9-7.82h4.44L116,46.14Z"/><path class="cls-1" d="M127.18,42.26l-1.49,3.88h-4.26l6.88-17.08h5.31l7.23,17.08h-4.48l-1.59-3.88Zm6.45-3.32C132,35,131.26,33,130.85,31.73h0c-.38,1.28-1.29,3.87-2.57,7.21Z"/><polygon class="cls-1" points="145.06 32.36 139.05 32.36 139.05 29.06 155.2 29.06 155.2 32.36 149.21 32.36 149.21 46.14 145.06 46.14 145.06 32.36"/><rect class="cls-1" x="157.85" y="29.06" width="4.15" height="17.08"/><path class="cls-1" d="M171.23,46.14l-7-17.08h4.58l3,8.13c1.13,3.08,1.61,4.73,1.91,5.82h0c.27-1,.5-1.71,2.1-6.13l2.91-7.82h4.44l-7.09,17.08Z"/><path class="cls-1" d="M2.29,56.9v4.34H0V50.39H4.77c2.37,0,3.64,1.3,3.64,3a2.61,2.61,0,0,1-1.58,2.57c.54.19,1.35.75,1.35,2.7v.53a8.57,8.57,0,0,0,.16,2.07H6.11a7.65,7.65,0,0,1-.22-2.43v-.16c0-1.19-.3-1.75-2-1.75Zm0-1.87h2C5.55,55,6,54.54,6,53.63s-.57-1.37-1.72-1.37h-2Z"/><polygon class="cls-1" points="17.97 56.56 12.78 56.56 12.78 59.32 18.51 59.32 18.23 61.24 10.5 61.24 10.5 50.39 18.2 50.39 18.2 52.31 12.78 52.31 12.78 54.64 17.97 54.64 17.97 56.56"/><path class="cls-1" d="M29.33,57.17c0-1.85,0-3.93.08-5.16h-.08c-.51,2.22-1.59,5.84-2.63,9.23h-2c-.79-3-1.92-7.09-2.39-9.26h-.08c.1,1.28.14,3.51.14,5.38v3.88H20.23V50.39h3.5c.84,2.83,1.79,6.39,2.12,8h0c.26-1.43,1.45-5.23,2.36-8H31.6V61.24H29.33Z"/><path class="cls-1" d="M44.18,55.78c0,3-1.82,5.62-5.34,5.62s-5.19-2.47-5.19-5.58,2-5.59,5.34-5.59c3.17,0,5.19,2.22,5.19,5.55m-8.11,0c0,2.12.93,3.72,2.86,3.72s2.82-1.75,2.82-3.68-.84-3.67-2.86-3.67-2.82,1.51-2.82,3.63"/><path class="cls-1" d="M46.23,50.39h4.3a4.93,4.93,0,0,1,5.23,5.29c0,3.17-2,5.56-5.33,5.56h-4.2Zm2.35,9h1.76c2.08,0,3-1.55,3-3.67,0-1.77-.86-3.4-3-3.4H48.58Z"/><polygon class="cls-1" points="65.29 56.56 60.09 56.56 60.09 59.32 65.82 59.32 65.54 61.24 57.82 61.24 57.82 50.39 65.52 50.39 65.52 52.31 60.09 52.31 60.09 54.64 65.29 54.64 65.29 56.56"/><polygon class="cls-1" points="67.5 50.39 69.85 50.39 69.85 59.32 75.26 59.32 74.99 61.24 67.5 61.24 67.5 50.39"/><rect class="cls-1" x="76.65" y="50.39" width="2.35" height="10.86"/><path class="cls-1" d="M81.59,61.24V50.39H84.5c1.36,2.43,3.86,6.83,4.36,8h0c-.12-1.13-.12-3-.12-4.8V50.39H90.9V61.24H88.14c-1.17-2.12-3.94-7.17-4.48-8.42h0c.08,1,.1,3.18.1,5.12v3.3Z"/><path class="cls-1" d="M102.93,61.24h-1.72a5.2,5.2,0,0,1-.18-1.07,3.75,3.75,0,0,1-3.17,1.26c-3.16,0-4.92-2.39-4.92-5.48,0-3.26,1.9-5.72,5.32-5.72,2.8,0,4.44,1.58,4.71,3.43h-2.35a2.22,2.22,0,0,0-2.39-1.59c-2.23,0-2.86,1.86-2.86,3.78s.72,3.71,2.88,3.71a2.15,2.15,0,0,0,2.37-2.37v-.1H98.24V55.17h4.69Z"/><polygon class="cls-1" points="57.23 5.51 57.23 14.02 61.11 17.9 61.11 0 65.68 4.16 65.68 4.57 65.68 7.51 83.21 26.36 57.48 26.54 33.73 5.6 57.23 5.51"/><polygon class="cls-1" points="36.39 10.04 40.21 13.71 1.11 48.52 36.39 10.04"/><polygon class="cls-1" points="105.47 58.16 106.3 58.16 106.3 60.58 107.61 60.58 107.61 61.37 105.47 61.37 105.47 58.16"/><polygon class="cls-1" points="107.99 58.16 108.83 58.16 108.83 60.58 110.14 60.58 110.14 61.37 107.99 61.37 107.99 58.16"/><path class="cls-1" d="M112.26,60.06l.73.26a1.89,1.89,0,0,1-.23.61,1.08,1.08,0,0,1-.4.37,1.33,1.33,0,0,1-.6.13,1.42,1.42,0,0,1-.72-.16,1.2,1.2,0,0,1-.48-.53,2,2,0,0,1-.21-1,1.88,1.88,0,0,1,.36-1.23,1.45,1.45,0,0,1,1.82-.18,1.51,1.51,0,0,1,.43.76l-.74.19a.54.54,0,0,0-.08-.21.42.42,0,0,0-.17-.18.44.44,0,0,0-.23-.06.47.47,0,0,0-.43.27,1.3,1.3,0,0,0-.12.63,1.36,1.36,0,0,0,.14.73.42.42,0,0,0,.38.2.43.43,0,0,0,.37-.16,1.1,1.1,0,0,0,.18-.46"/></g></g></svg>