<svg class="demo_svg" xmlns="http://www.w3.org/2000/svg" viewBox="0 0 274.03 82.09">
    <defs>
        <style>
            .cls-1 {
                fill: #1d1a55;
            }

            .cls-2 {
                fill: #fff;
            }
        </style>
    </defs>
    <g id="Layer_2" data-name="Layer 2">
        <g id="Layer_1-2" data-name="Layer 1">
            <path class="cls-1" d="M233,82.09H41.05A41,41,0,1,1,41.05,0H233a41,41,0,0,1,0,82.09" />
            <path class="cls-2" d="M266.07,41.21A34.92,34.92,0,1,1,231.15,6.29a34.93,34.93,0,0,1,34.92,34.92" />
            <path class="cls-2"
                d="M25.65,47.12V33.52h6.71a5.16,5.16,0,0,1,3.45.87,4.16,4.16,0,0,1,.95,3.14,5.77,5.77,0,0,1-.48,2.82,2.79,2.79,0,0,1-1.94,1v.09c1.51.1,2.27,1,2.27,2.64v3H34V44.64A1.84,1.84,0,0,0,32,42.54H28.23v4.58Zm2.58-6.75h3.71a2.37,2.37,0,0,0,1.76-.48A2.9,2.9,0,0,0,34.13,38a3.1,3.1,0,0,0-.37-1.88,2.19,2.19,0,0,0-1.64-.43H28.23Z" />
            <path class="cls-2" d="M41.12,35.69V39.2H47.5v1.9H41.12V45h6.79v2.17H38.54V33.52h9.31v2.17Z" />
            <path class="cls-2"
                d="M62.48,45.3l-1.07,1.56L60.12,46q-1.27,1.27-4.83,1.28c-2.6,0-4.26-.39-5-1.17s-1.11-2.55-1.11-5.3q0-4.82,1-6.09t5-1.28q3.91,0,5,1.2t1.08,5.54a20.94,20.94,0,0,1-.27,4.18Zm-7.75-3,1.08-1.55,2.81,1.9c.05-.49.08-.82.08-1V38.58c0-1.27-.2-2.08-.62-2.43a4.71,4.71,0,0,0-2.8-.54c-1.73,0-2.74.23-3,.67s-.44,2-.44,4.63c0,2,.18,3.17.54,3.55s1.46.57,3.33.57a3.58,3.58,0,0,0,2.23-.61Z" />
            <path class="cls-2"
                d="M72.24,33.52h2.58v9c0,1.89-.37,3.15-1.1,3.76s-2.21.91-4.46.91-3.92-.29-4.66-.86-1.11-1.8-1.11-3.66v-9.2h2.59v9.2c0,1,.18,1.64.53,1.91a5,5,0,0,0,2.54.4,4.84,4.84,0,0,0,2.56-.41c.35-.27.53-.94.53-2Z" />
            <path class="cls-2" d="M79.51,35.69V39.2h6.38v1.9H79.51V45H86.3v2.17H76.93V33.52h9.31v2.17Z" />
            <path class="cls-2"
                d="M98.32,37.49H95.8a1.69,1.69,0,0,1,0-.28q-.09-1.16-.51-1.44a4,4,0,0,0-2-.3,5.46,5.46,0,0,0-2.39.34,1.54,1.54,0,0,0-.57,1.43c0,.85.16,1.37.46,1.54a10.19,10.19,0,0,0,3,.4q3,.16,3.93.87c.6.46.9,1.43.9,2.9,0,1.81-.35,3-1.05,3.5s-2.24.79-4.62.79c-2.13,0-3.55-.26-4.26-.77s-1-1.57-1-3.15v-.5h2.51v.29c0,1,.17,1.53.5,1.74a6.69,6.69,0,0,0,2.72.32,4.17,4.17,0,0,0,2.22-.37c.31-.24.48-.81.48-1.7a1.75,1.75,0,0,0-.37-1.31,2.77,2.77,0,0,0-1.57-.4l-1.42-.09c-2.16-.12-3.53-.42-4.13-.89s-.9-1.49-.9-3,.36-2.65,1.08-3.18,2.17-.79,4.32-.79,3.43.24,4.14.73A3.22,3.22,0,0,1,98.32,37Z" />
            <path class="cls-2" d="M105.86,35.83V47.12h-2.58V35.83H99.35V33.52h10.58v2.31Z" />
            <path class="cls-2"
                d="M124.57,44.51H118.7l-.85,2.61h-2.73l4.52-13.6h3.88l4.6,13.6h-2.68Zm-.6-1.9-2.35-7.09-2.31,7.09Z" />
            <path class="cls-2"
                d="M134.39,47.12V33.52h6.69c1.9,0,3.23.42,4,1.25s1.15,2.28,1.15,4.36q0,5.1-.92,6.54c-.61,1-2,1.45-4.14,1.45ZM137,45h3.67c1.24,0,2-.28,2.4-.85a8.27,8.27,0,0,0,.54-3.76,9.28,9.28,0,0,0-.48-3.83c-.33-.54-1.09-.82-2.3-.82H137Z" />
            <path class="cls-2" d="M150.41,35.69V39.2h6.38v1.9h-6.38V45h6.79v2.17h-9.37V33.52h9.31v2.17Z" />
            <path class="cls-2"
                d="M175,33.52v13.6h-2.58V39.71c0-.59,0-1.26.05-2l.05-1,0-1h-.08l-.31.95-.3,1c-.28.85-.5,1.47-.65,1.88l-3,7.67h-2.35l-3-7.61c-.17-.42-.39-1-.66-1.88l-.31-1-.31-.94h-.08l.05,1,0,1q.06,1.16.06,2v7.41h-2.58V33.52h4.21l2.43,6.3c.17.44.38,1.07.66,1.88l.3.95.3.94h.09l.29-.94.3-.94c.25-.79.46-1.41.64-1.87l2.39-6.32Z" />
            <path class="cls-2"
                d="M183.07,33.4q3.7,0,4.77,1.23t1.07,5.51c0,3.11-.36,5.08-1.07,5.89s-2.44,1.21-5.19,1.21c-2.47,0-4.07-.4-4.79-1.2s-1.09-2.56-1.09-5.28c0-3.25.36-5.28,1.07-6.11S180.29,33.4,183.07,33.4Zm-.2,2.21c-1.73,0-2.75.23-3,.67s-.44,2-.44,4.63c0,2,.17,3.12.52,3.52s1.35.6,3,.6,2.56-.22,2.88-.67.48-1.81.48-4.08-.15-3.63-.45-4S184.55,35.61,182.87,35.61Z" />
            <path class="cls-1" d="M261.86,41.21A30.71,30.71,0,1,1,231.15,10.5a30.71,30.71,0,0,1,30.71,30.71" />
            <rect class="cls-2" x="228.96" y="38.23" width="1.67" height="1.67" />
            <rect class="cls-2" x="231.08" y="38.23" width="1.67" height="1.67" />
            <rect class="cls-2" x="228.96" y="40.36" width="1.67" height="1.67" />
            <rect class="cls-2" x="231.08" y="40.36" width="1.67" height="1.67" />
            <polygon class="cls-2"
                points="238.82 31.66 238.82 35.99 240.8 37.97 240.8 28.85 243.13 30.97 243.13 31.18 243.13 32.68 252.05 42.27 238.95 42.37 226.86 31.7 238.82 31.66" />
            <polygon class="cls-2" points="228.21 33.97 230.15 35.84 210.25 53.56 228.21 33.97" />
        </g>
    </g>
</svg>